<?xml version="1.0" encoding="UTF-8" standalone="no"?>
<!-- Generator: Adobe Illustrator 21.0.0, SVG Export Plug-In . SVG Version: 6.00 Build 0)  -->

<svg
   xmlns:dc="http://purl.org/dc/elements/1.1/"
   xmlns:cc="http://creativecommons.org/ns#"
   xmlns:rdf="http://www.w3.org/1999/02/22-rdf-syntax-ns#"
   xmlns:svg="http://www.w3.org/2000/svg"
   xmlns="http://www.w3.org/2000/svg"
   xmlns:sodipodi="http://sodipodi.sourceforge.net/DTD/sodipodi-0.dtd"
   xmlns:inkscape="http://www.inkscape.org/namespaces/inkscape"
   version="1.1"
   id="icon"
   inkscape:version="0.92.1 r15371"
   sodipodi:docname="black_factory.svg"
   x="0px"
   y="0px"
   viewBox="0 0 359.8 539.8"
   xml:space="preserve"
   width="359.79999"
   height="539.79999"><metadata
     id="metadata42"><rdf:RDF><cc:Work
         rdf:about=""><dc:format>image/svg+xml</dc:format><dc:type
           rdf:resource="http://purl.org/dc/dcmitype/StillImage" /></cc:Work></rdf:RDF></metadata><defs
     id="defs40" /><sodipodi:namedview
     pagecolor="#ffffff"
     bordercolor="#666666"
     borderopacity="1"
     objecttolerance="10"
     gridtolerance="10"
     guidetolerance="10"
     inkscape:pageopacity="0"
     inkscape:pageshadow="2"
     inkscape:window-width="1871"
     inkscape:window-height="1056"
     id="namedview38"
     showgrid="false"
     inkscape:zoom="0.39643878"
     inkscape:cx="-71.901894"
     inkscape:cy="283.91738"
     inkscape:window-x="49"
     inkscape:window-y="24"
     inkscape:window-maximized="1"
     inkscape:current-layer="icon" /><style
     type="text/css"
     id="style2">
	.st0{fill:#232323;}
	.st1{fill:#696969;}
</style><g
     id="factory_x5F_black"
     transform="translate(484.3,-34.2)"><polygon
       class="st0"
       points="-466.2,397.5 -484.3,574 -124.5,574 -142.6,397.5 "
       id="polygon4"
       style="fill:#232323" /><polygon
       class="st0"
       points="-261.2,340.2 -367.3,397.5 -261.2,397.5 "
       id="polygon6"
       style="fill:#232323" /><polygon
       class="st0"
       points="-155.1,340.2 -261.2,397.5 -155.1,397.5 "
       id="polygon8"
       style="fill:#232323" /><polygon
       class="st0"
       points="-431,188.3 -447,398.4 -367.3,398.4 -383.3,188.3 "
       id="polygon10"
       style="fill:#232323" /><path
       id="smoke"
       class="st0"
       d="m -409.1,183.1 c 12.9,-42.8 34.8,-91.4 57,-99 30,-10.3 57.4,-5.3 91.2,-13.5 20.4,-4.9 56.4,-16.7 66.2,-36.4 -9.8,19.6 -27.7,53.7 -61.7,67.2 -29,11.5 -49,1.5 -79,11.8 -22.2,7.7 -50.5,30.8 -73.7,69.9 z"
       inkscape:connector-curvature="0"
       style="fill:#232323" /></g></svg>