<?xml version="1.0" encoding="UTF-8" standalone="no"?>
<!-- Generator: Adobe Illustrator 21.0.0, SVG Export Plug-In . SVG Version: 6.00 Build 0)  -->

<svg
   xmlns:dc="http://purl.org/dc/elements/1.1/"
   xmlns:cc="http://creativecommons.org/ns#"
   xmlns:rdf="http://www.w3.org/1999/02/22-rdf-syntax-ns#"
   xmlns:svg="http://www.w3.org/2000/svg"
   xmlns="http://www.w3.org/2000/svg"
   xmlns:sodipodi="http://sodipodi.sourceforge.net/DTD/sodipodi-0.dtd"
   xmlns:inkscape="http://www.inkscape.org/namespaces/inkscape"
   version="1.1"
   id="icon"
   inkscape:version="0.92.1 r15371"
   sodipodi:docname="gray_factory.svg"
   x="0px"
   y="0px"
   viewBox="0 0 359.8 539.8"
   xml:space="preserve"
   width="359.79999"
   height="539.79999"><metadata
     id="metadata42"><rdf:RDF><cc:Work
         rdf:about=""><dc:format>image/svg+xml</dc:format><dc:type
           rdf:resource="http://purl.org/dc/dcmitype/StillImage" /></cc:Work></rdf:RDF></metadata><defs
     id="defs40" /><sodipodi:namedview
     pagecolor="#ffffff"
     bordercolor="#666666"
     borderopacity="1"
     objecttolerance="10"
     gridtolerance="10"
     guidetolerance="10"
     inkscape:pageopacity="0"
     inkscape:pageshadow="2"
     inkscape:window-width="1871"
     inkscape:window-height="1056"
     id="namedview38"
     showgrid="false"
     inkscape:zoom="0.39643878"
     inkscape:cx="193.14999"
     inkscape:cy="276.35001"
     inkscape:window-x="49"
     inkscape:window-y="24"
     inkscape:window-maximized="1"
     inkscape:current-layer="icon" /><style
     type="text/css"
     id="style2">
	.st0{fill:#232323;}
	.st1{fill:#696969;}
</style><g
     id="factory_x5F_gray"
     transform="translate(-104.5,-34.2)"><g
       id="g23"><polygon
         class="st0"
         points="446.2,397.5 122.6,397.5 104.5,574 464.3,574 "
         id="polygon14"
         style="fill:#232323" /><polygon
         class="st0"
         points="327.6,397.5 327.6,340.2 221.5,397.5 "
         id="polygon16"
         style="fill:#232323" /><polygon
         class="st0"
         points="433.7,397.5 433.7,340.2 327.6,397.5 "
         id="polygon18"
         style="fill:#232323" /><polygon
         class="st0"
         points="205.5,188.3 157.8,188.3 141.8,398.4 221.5,398.4 "
         id="polygon20"
         style="fill:#232323" /><path
         id="smoke_8_"
         class="st0"
         d="m 179.7,183.1 c 12.9,-42.8 34.8,-91.4 57,-99 30,-10.3 57.4,-5.3 91.2,-13.5 20.4,-4.9 56.4,-16.7 66.2,-36.4 -9.8,19.6 -27.7,53.7 -61.7,67.2 -29,11.5 -49,1.5 -79,11.8 -22.2,7.7 -50.5,30.8 -73.7,69.9 z"
         inkscape:connector-curvature="0"
         style="fill:#232323" /></g><g
       id="g34"><polygon
         class="st1"
         points="446.2,397.5 122.6,397.5 104.5,574 464.3,574 "
         id="polygon25"
         style="fill:#696969" /><polygon
         class="st1"
         points="327.6,397.5 327.6,340.2 221.5,397.5 "
         id="polygon27"
         style="fill:#696969" /><polygon
         class="st1"
         points="433.7,397.5 433.7,340.2 327.6,397.5 "
         id="polygon29"
         style="fill:#696969" /><polygon
         class="st1"
         points="205.5,188.3 157.8,188.3 141.8,398.4 221.5,398.4 "
         id="polygon31"
         style="fill:#696969" /><path
         id="smoke_7_"
         class="st1"
         d="m 179.7,183.1 c 12.9,-42.8 34.8,-91.4 57,-99 30,-10.3 57.4,-5.3 91.2,-13.5 20.4,-4.9 56.4,-16.7 66.2,-36.4 -9.8,19.6 -27.7,53.7 -61.7,67.2 -29,11.5 -49,1.5 -79,11.8 -22.2,7.7 -50.5,30.8 -73.7,69.9 z"
         inkscape:connector-curvature="0"
         style="fill:#696969" /></g></g></svg>