<?xml version="1.0" encoding="utf-8"?>
<!-- Generator: Adobe Illustrator 21.0.0, SVG Export Plug-In . SVG Version: 6.00 Build 0)  -->
<svg version="1.1"
	 id="icon" inkscape:version="0.92.1 r15371" sodipodi:docname="factory.svg" xmlns:cc="http://creativecommons.org/ns#" xmlns:dc="http://purl.org/dc/elements/1.1/" xmlns:inkscape="http://www.inkscape.org/namespaces/inkscape" xmlns:rdf="http://www.w3.org/1999/02/22-rdf-syntax-ns#" xmlns:sodipodi="http://sodipodi.sourceforge.net/DTD/sodipodi-0.dtd" xmlns:svg="http://www.w3.org/2000/svg"
	 xmlns="http://www.w3.org/2000/svg" xmlns:xlink="http://www.w3.org/1999/xlink" x="0px" y="0px" viewBox="0 0 595.3 595.3"
	 style="enable-background:new 0 0 595.3 595.3;" xml:space="preserve">
<style type="text/css">
	.st0{fill:#232323;}
	.st1{fill:#696969;}
</style>
<g id="factory_x5F_black">
	<polygon class="st0" points="-484.3,574 -124.5,574 -142.6,397.5 -466.2,397.5 	"/>
	<polygon class="st0" points="-261.2,340.2 -367.3,397.5 -261.2,397.5 	"/>
	<polygon class="st0" points="-155.1,340.2 -261.2,397.5 -155.1,397.5 	"/>
	<polygon class="st0" points="-447,398.4 -367.3,398.4 -383.3,188.3 -431,188.3 	"/>
	<path id="smoke" class="st0" d="M-409.1,183.1c12.9-42.8,34.8-91.4,57-99c30-10.3,57.4-5.3,91.2-13.5c20.4-4.9,56.4-16.7,66.2-36.4
		c-9.8,19.6-27.7,53.7-61.7,67.2c-29,11.5-49,1.5-79,11.8C-357.6,120.9-385.9,144-409.1,183.1z"/>
</g>
<g id="factory_x5F_gray">
	<g>
		<polygon class="st0" points="104.5,574 464.3,574 446.2,397.5 122.6,397.5 		"/>
		<polygon class="st0" points="327.6,340.2 221.5,397.5 327.6,397.5 		"/>
		<polygon class="st0" points="433.7,340.2 327.6,397.5 433.7,397.5 		"/>
		<polygon class="st0" points="141.8,398.4 221.5,398.4 205.5,188.3 157.8,188.3 		"/>
		<path id="smoke_8_" class="st0" d="M179.7,183.1c12.9-42.8,34.8-91.4,57-99c30-10.3,57.4-5.3,91.2-13.5
			c20.4-4.9,56.4-16.7,66.2-36.4c-9.8,19.6-27.7,53.7-61.7,67.2c-29,11.5-49,1.5-79,11.8C231.2,120.9,202.9,144,179.7,183.1z"/>
	</g>
	<g>
		<polygon class="st1" points="104.5,574 464.3,574 446.2,397.5 122.6,397.5 		"/>
		<polygon class="st1" points="327.6,340.2 221.5,397.5 327.6,397.5 		"/>
		<polygon class="st1" points="433.7,340.2 327.6,397.5 433.7,397.5 		"/>
		<polygon class="st1" points="141.8,398.4 221.5,398.4 205.5,188.3 157.8,188.3 		"/>
		<path id="smoke_7_" class="st1" d="M179.7,183.1c12.9-42.8,34.8-91.4,57-99c30-10.3,57.4-5.3,91.2-13.5
			c20.4-4.9,56.4-16.7,66.2-36.4c-9.8,19.6-27.7,53.7-61.7,67.2c-29,11.5-49,1.5-79,11.8C231.2,120.9,202.9,144,179.7,183.1z"/>
	</g>
</g>
</svg>
